<mxfile host="app.diagrams.net" modified="2023-07-13T15:21:39.780Z" agent="Mozilla/5.0 (Windows NT 10.0; Win64; x64) AppleWebKit/537.36 (KHTML, like Gecko) Chrome/114.0.0.0 Safari/537.36" etag="NQNNP3Pb7u62tObCKnuU" version="21.6.2" type="device">
  <diagram name="PÃ¡gina-1" id="aEZ3nWj6X002lkb3g2jM">
    <mxGraphModel dx="1434" dy="707" grid="1" gridSize="10" guides="1" tooltips="1" connect="1" arrows="1" fold="1" page="1" pageScale="1" pageWidth="1169" pageHeight="827" math="0" shadow="0">
      <root>
        <mxCell id="0" />
        <mxCell id="1" parent="0" />
        <mxCell id="JxzReIGNzYuF0FjpWkMe-160" value="" style="rounded=0;whiteSpace=wrap;html=1;strokeWidth=2;" vertex="1" parent="1">
          <mxGeometry x="270" y="310" width="690" height="420" as="geometry" />
        </mxCell>
        <mxCell id="JxzReIGNzYuF0FjpWkMe-71" style="edgeStyle=orthogonalEdgeStyle;rounded=0;orthogonalLoop=1;jettySize=auto;html=1;" edge="1" parent="1" source="JxzReIGNzYuF0FjpWkMe-67" target="JxzReIGNzYuF0FjpWkMe-38">
          <mxGeometry relative="1" as="geometry" />
        </mxCell>
        <mxCell id="JxzReIGNzYuF0FjpWkMe-26" value="&lt;b&gt;&lt;font style=&quot;font-size: 16px;&quot;&gt;Cluster&lt;/font&gt;&lt;/b&gt;" style="text;html=1;strokeColor=none;fillColor=none;align=center;verticalAlign=middle;whiteSpace=wrap;rounded=0;" vertex="1" parent="1">
          <mxGeometry x="270" y="280" width="60" height="30" as="geometry" />
        </mxCell>
        <mxCell id="JxzReIGNzYuF0FjpWkMe-93" style="edgeStyle=orthogonalEdgeStyle;rounded=0;orthogonalLoop=1;jettySize=auto;html=1;entryX=0.5;entryY=1;entryDx=0;entryDy=0;" edge="1" parent="1" source="JxzReIGNzYuF0FjpWkMe-38" target="JxzReIGNzYuF0FjpWkMe-2">
          <mxGeometry relative="1" as="geometry">
            <Array as="points">
              <mxPoint x="615" y="630" />
              <mxPoint x="405" y="630" />
            </Array>
          </mxGeometry>
        </mxCell>
        <mxCell id="JxzReIGNzYuF0FjpWkMe-94" style="edgeStyle=orthogonalEdgeStyle;rounded=0;orthogonalLoop=1;jettySize=auto;html=1;entryX=0.5;entryY=1;entryDx=0;entryDy=0;" edge="1" parent="1" source="JxzReIGNzYuF0FjpWkMe-38">
          <mxGeometry relative="1" as="geometry">
            <mxPoint x="615" y="600" as="targetPoint" />
          </mxGeometry>
        </mxCell>
        <mxCell id="JxzReIGNzYuF0FjpWkMe-144" style="edgeStyle=orthogonalEdgeStyle;rounded=0;orthogonalLoop=1;jettySize=auto;html=1;entryX=0.5;entryY=1;entryDx=0;entryDy=0;" edge="1" parent="1" source="JxzReIGNzYuF0FjpWkMe-38" target="JxzReIGNzYuF0FjpWkMe-133">
          <mxGeometry relative="1" as="geometry">
            <Array as="points">
              <mxPoint x="615" y="630" />
              <mxPoint x="825" y="630" />
            </Array>
          </mxGeometry>
        </mxCell>
        <mxCell id="JxzReIGNzYuF0FjpWkMe-38" value="" style="rounded=0;whiteSpace=wrap;html=1;fillColor=#d5e8d4;strokeColor=#82b366;" vertex="1" parent="1">
          <mxGeometry x="310" y="647" width="610" height="60" as="geometry" />
        </mxCell>
        <mxCell id="JxzReIGNzYuF0FjpWkMe-39" value="&lt;font style=&quot;font-size: 16px;&quot;&gt;&lt;b&gt;Master Node&lt;/b&gt;&lt;/font&gt;" style="text;html=1;strokeColor=none;fillColor=none;align=center;verticalAlign=middle;whiteSpace=wrap;rounded=1;sketch=1;curveFitting=1;jiggle=2;glass=0;shadow=0;hachureAngle=-41;" vertex="1" parent="1">
          <mxGeometry x="565" y="662" width="100" height="30" as="geometry" />
        </mxCell>
        <mxCell id="JxzReIGNzYuF0FjpWkMe-97" value="" style="group;strokeWidth=2;" vertex="1" connectable="0" parent="1">
          <mxGeometry x="40" y="599" width="160" height="128" as="geometry" />
        </mxCell>
        <mxCell id="JxzReIGNzYuF0FjpWkMe-36" value="&lt;b&gt;&lt;font style=&quot;font-size: 16px;&quot;&gt;Local Machine&lt;/font&gt;&lt;/b&gt;" style="text;html=1;strokeColor=none;fillColor=none;align=center;verticalAlign=middle;whiteSpace=wrap;rounded=1;sketch=1;curveFitting=1;jiggle=2;glass=0;shadow=0;hachureAngle=-41;" vertex="1" parent="JxzReIGNzYuF0FjpWkMe-97">
          <mxGeometry width="130" height="30" as="geometry" />
        </mxCell>
        <mxCell id="JxzReIGNzYuF0FjpWkMe-96" value="" style="group" vertex="1" connectable="0" parent="JxzReIGNzYuF0FjpWkMe-97">
          <mxGeometry y="28" width="160" height="100" as="geometry" />
        </mxCell>
        <mxCell id="JxzReIGNzYuF0FjpWkMe-67" value="" style="rounded=0;whiteSpace=wrap;html=1;strokeWidth=2;" vertex="1" parent="JxzReIGNzYuF0FjpWkMe-96">
          <mxGeometry width="160" height="100" as="geometry" />
        </mxCell>
        <mxCell id="JxzReIGNzYuF0FjpWkMe-72" value="" style="rounded=0;whiteSpace=wrap;html=1;fillColor=#fff2cc;strokeColor=#d6b656;" vertex="1" parent="JxzReIGNzYuF0FjpWkMe-96">
          <mxGeometry x="70" y="60" width="80" height="34.9" as="geometry" />
        </mxCell>
        <mxCell id="JxzReIGNzYuF0FjpWkMe-33" value="&lt;b&gt;Config&lt;/b&gt;" style="text;html=1;strokeColor=none;fillColor=none;align=center;verticalAlign=middle;whiteSpace=wrap;rounded=1;sketch=1;curveFitting=1;jiggle=2;glass=0;shadow=0;hachureAngle=-41;" vertex="1" parent="JxzReIGNzYuF0FjpWkMe-96">
          <mxGeometry x="80" y="62" width="60" height="30" as="geometry" />
        </mxCell>
        <mxCell id="JxzReIGNzYuF0FjpWkMe-69" value="" style="rounded=0;whiteSpace=wrap;html=1;fillColor=#dae8fc;strokeColor=#6c8ebf;" vertex="1" parent="JxzReIGNzYuF0FjpWkMe-96">
          <mxGeometry x="70" y="9" width="80" height="34.9" as="geometry" />
        </mxCell>
        <mxCell id="JxzReIGNzYuF0FjpWkMe-34" value="&lt;b&gt;kubectl&lt;/b&gt;" style="text;html=1;strokeColor=none;fillColor=none;align=center;verticalAlign=middle;whiteSpace=wrap;rounded=1;sketch=1;curveFitting=1;jiggle=2;glass=0;shadow=0;hachureAngle=-41;" vertex="1" parent="JxzReIGNzYuF0FjpWkMe-96">
          <mxGeometry x="80" y="11.449999999999989" width="60" height="30" as="geometry" />
        </mxCell>
        <mxCell id="JxzReIGNzYuF0FjpWkMe-66" value="" style="image;points=[];aspect=fixed;html=1;align=center;shadow=0;dashed=0;image=img/lib/allied_telesis/computer_and_terminals/Personal_Computer.svg;" vertex="1" parent="JxzReIGNzYuF0FjpWkMe-96">
          <mxGeometry x="14.399999999999999" y="18.19999999999999" width="45.6" height="61.800000000000004" as="geometry" />
        </mxCell>
        <mxCell id="JxzReIGNzYuF0FjpWkMe-112" value="" style="group" vertex="1" connectable="0" parent="1">
          <mxGeometry x="585" y="17" width="60" height="73" as="geometry" />
        </mxCell>
        <mxCell id="JxzReIGNzYuF0FjpWkMe-64" value="&lt;b&gt;Client&lt;/b&gt;" style="text;html=1;strokeColor=none;fillColor=none;align=center;verticalAlign=middle;whiteSpace=wrap;rounded=1;sketch=1;curveFitting=1;jiggle=2;glass=0;shadow=0;hachureAngle=-41;" vertex="1" parent="JxzReIGNzYuF0FjpWkMe-112">
          <mxGeometry y="43" width="60" height="30" as="geometry" />
        </mxCell>
        <mxCell id="JxzReIGNzYuF0FjpWkMe-98" value="" style="sketch=0;outlineConnect=0;fontColor=#232F3E;gradientColor=none;fillColor=#232F3D;strokeColor=none;dashed=0;verticalLabelPosition=bottom;verticalAlign=top;align=center;html=1;fontSize=12;fontStyle=0;aspect=fixed;pointerEvents=1;shape=mxgraph.aws4.client;" vertex="1" parent="JxzReIGNzYuF0FjpWkMe-112">
          <mxGeometry x="7.930000000000064" width="44.13" height="43" as="geometry" />
        </mxCell>
        <mxCell id="JxzReIGNzYuF0FjpWkMe-8" value="&lt;b&gt;Worker Node 1&lt;/b&gt;" style="text;html=1;strokeColor=none;fillColor=none;align=center;verticalAlign=middle;whiteSpace=wrap;rounded=1;sketch=1;curveFitting=1;jiggle=2;glass=0;shadow=0;hachureAngle=-41;" vertex="1" parent="1">
          <mxGeometry x="310" y="330" width="90" height="30" as="geometry" />
        </mxCell>
        <mxCell id="JxzReIGNzYuF0FjpWkMe-120" value="" style="group;fillColor=#d5e8d4;strokeColor=#82b366;" vertex="1" connectable="0" parent="1">
          <mxGeometry x="310" y="360" width="190" height="239" as="geometry" />
        </mxCell>
        <mxCell id="JxzReIGNzYuF0FjpWkMe-2" value="" style="rounded=0;whiteSpace=wrap;html=1;glass=0;shadow=0;hachureAngle=-41;container=0;" vertex="1" parent="JxzReIGNzYuF0FjpWkMe-120">
          <mxGeometry width="190" height="239" as="geometry" />
        </mxCell>
        <mxCell id="JxzReIGNzYuF0FjpWkMe-102" value="" style="rounded=0;whiteSpace=wrap;html=1;dashed=1;" vertex="1" parent="JxzReIGNzYuF0FjpWkMe-120">
          <mxGeometry x="10" y="10" width="100" height="220.6" as="geometry" />
        </mxCell>
        <mxCell id="JxzReIGNzYuF0FjpWkMe-3" value="" style="whiteSpace=wrap;html=1;aspect=fixed;rounded=0;glass=0;shadow=0;hachureAngle=-41;" vertex="1" parent="JxzReIGNzYuF0FjpWkMe-120">
          <mxGeometry x="20" y="36.5" width="82.5" height="82.5" as="geometry" />
        </mxCell>
        <mxCell id="JxzReIGNzYuF0FjpWkMe-4" value="" style="whiteSpace=wrap;html=1;aspect=fixed;rounded=0;glass=0;shadow=0;hachureAngle=-41;" vertex="1" parent="JxzReIGNzYuF0FjpWkMe-120">
          <mxGeometry x="20" y="141.5" width="82.5" height="82.5" as="geometry" />
        </mxCell>
        <mxCell id="JxzReIGNzYuF0FjpWkMe-6" value="File Puller&lt;br&gt;Container" style="text;html=1;strokeColor=none;fillColor=none;align=center;verticalAlign=middle;whiteSpace=wrap;rounded=1;sketch=1;curveFitting=1;jiggle=2;glass=0;shadow=0;hachureAngle=-41;" vertex="1" parent="JxzReIGNzYuF0FjpWkMe-120">
          <mxGeometry x="31.25" y="59" width="60" height="30" as="geometry" />
        </mxCell>
        <mxCell id="JxzReIGNzYuF0FjpWkMe-7" value="Webserver&lt;br&gt;Container" style="text;html=1;strokeColor=none;fillColor=none;align=center;verticalAlign=middle;whiteSpace=wrap;rounded=1;sketch=1;curveFitting=1;jiggle=2;glass=0;shadow=0;hachureAngle=-41;" vertex="1" parent="JxzReIGNzYuF0FjpWkMe-120">
          <mxGeometry x="31.25" y="167.75" width="60" height="30" as="geometry" />
        </mxCell>
        <mxCell id="JxzReIGNzYuF0FjpWkMe-73" value="" style="group" vertex="1" connectable="0" parent="JxzReIGNzYuF0FjpWkMe-120">
          <mxGeometry x="120" y="89" width="60" height="83.19999999999999" as="geometry" />
        </mxCell>
        <mxCell id="JxzReIGNzYuF0FjpWkMe-27" value="" style="shadow=0;dashed=0;html=1;strokeColor=none;fillColor=#75B4DB;labelPosition=center;verticalLabelPosition=bottom;verticalAlign=top;align=center;outlineConnect=0;shape=mxgraph.veeam.volume_shadow_copy;" vertex="1" parent="JxzReIGNzYuF0FjpWkMe-73">
          <mxGeometry x="2.8000000000000114" y="26" width="57.2" height="57.2" as="geometry" />
        </mxCell>
        <mxCell id="JxzReIGNzYuF0FjpWkMe-30" value="Volume" style="text;html=1;strokeColor=none;fillColor=none;align=center;verticalAlign=middle;whiteSpace=wrap;rounded=1;sketch=1;curveFitting=1;jiggle=2;glass=0;shadow=0;hachureAngle=-41;" vertex="1" parent="JxzReIGNzYuF0FjpWkMe-73">
          <mxGeometry width="60" height="30" as="geometry" />
        </mxCell>
        <mxCell id="JxzReIGNzYuF0FjpWkMe-106" value="&lt;b&gt;Service&lt;/b&gt;" style="text;html=1;strokeColor=none;fillColor=none;align=center;verticalAlign=middle;whiteSpace=wrap;rounded=1;sketch=1;curveFitting=1;jiggle=2;glass=0;shadow=0;hachureAngle=-41;" vertex="1" parent="JxzReIGNzYuF0FjpWkMe-120">
          <mxGeometry x="10" y="10" width="61.25" height="30" as="geometry" />
        </mxCell>
        <mxCell id="JxzReIGNzYuF0FjpWkMe-121" value="" style="group" vertex="1" connectable="0" parent="1">
          <mxGeometry x="520" y="360" width="190" height="239" as="geometry" />
        </mxCell>
        <mxCell id="JxzReIGNzYuF0FjpWkMe-122" value="" style="rounded=0;whiteSpace=wrap;html=1;glass=0;shadow=0;hachureAngle=-41;container=0;" vertex="1" parent="JxzReIGNzYuF0FjpWkMe-121">
          <mxGeometry width="190" height="239" as="geometry" />
        </mxCell>
        <mxCell id="JxzReIGNzYuF0FjpWkMe-123" value="" style="rounded=0;whiteSpace=wrap;html=1;dashed=1;" vertex="1" parent="JxzReIGNzYuF0FjpWkMe-121">
          <mxGeometry x="10" y="10" width="100" height="220.6" as="geometry" />
        </mxCell>
        <mxCell id="JxzReIGNzYuF0FjpWkMe-124" value="" style="whiteSpace=wrap;html=1;aspect=fixed;rounded=0;glass=0;shadow=0;hachureAngle=-41;" vertex="1" parent="JxzReIGNzYuF0FjpWkMe-121">
          <mxGeometry x="20" y="36.5" width="82.5" height="82.5" as="geometry" />
        </mxCell>
        <mxCell id="JxzReIGNzYuF0FjpWkMe-125" value="" style="whiteSpace=wrap;html=1;aspect=fixed;rounded=0;glass=0;shadow=0;hachureAngle=-41;" vertex="1" parent="JxzReIGNzYuF0FjpWkMe-121">
          <mxGeometry x="20" y="141.5" width="82.5" height="82.5" as="geometry" />
        </mxCell>
        <mxCell id="JxzReIGNzYuF0FjpWkMe-126" value="File Puller&lt;br&gt;Container" style="text;html=1;strokeColor=none;fillColor=none;align=center;verticalAlign=middle;whiteSpace=wrap;rounded=1;sketch=1;curveFitting=1;jiggle=2;glass=0;shadow=0;hachureAngle=-41;" vertex="1" parent="JxzReIGNzYuF0FjpWkMe-121">
          <mxGeometry x="31.25" y="59" width="60" height="30" as="geometry" />
        </mxCell>
        <mxCell id="JxzReIGNzYuF0FjpWkMe-127" value="Webserver&lt;br&gt;Container" style="text;html=1;strokeColor=none;fillColor=none;align=center;verticalAlign=middle;whiteSpace=wrap;rounded=1;sketch=1;curveFitting=1;jiggle=2;glass=0;shadow=0;hachureAngle=-41;" vertex="1" parent="JxzReIGNzYuF0FjpWkMe-121">
          <mxGeometry x="31.25" y="167.75" width="60" height="30" as="geometry" />
        </mxCell>
        <mxCell id="JxzReIGNzYuF0FjpWkMe-128" value="" style="group" vertex="1" connectable="0" parent="JxzReIGNzYuF0FjpWkMe-121">
          <mxGeometry x="120" y="89" width="60" height="83.19999999999999" as="geometry" />
        </mxCell>
        <mxCell id="JxzReIGNzYuF0FjpWkMe-129" value="" style="shadow=0;dashed=0;html=1;strokeColor=none;fillColor=#75B4DB;labelPosition=center;verticalLabelPosition=bottom;verticalAlign=top;align=center;outlineConnect=0;shape=mxgraph.veeam.volume_shadow_copy;" vertex="1" parent="JxzReIGNzYuF0FjpWkMe-128">
          <mxGeometry x="2.8000000000000114" y="26" width="57.2" height="57.2" as="geometry" />
        </mxCell>
        <mxCell id="JxzReIGNzYuF0FjpWkMe-130" value="Volume" style="text;html=1;strokeColor=none;fillColor=none;align=center;verticalAlign=middle;whiteSpace=wrap;rounded=1;sketch=1;curveFitting=1;jiggle=2;glass=0;shadow=0;hachureAngle=-41;" vertex="1" parent="JxzReIGNzYuF0FjpWkMe-128">
          <mxGeometry width="60" height="30" as="geometry" />
        </mxCell>
        <mxCell id="JxzReIGNzYuF0FjpWkMe-131" value="&lt;b&gt;Service&lt;/b&gt;" style="text;html=1;strokeColor=none;fillColor=none;align=center;verticalAlign=middle;whiteSpace=wrap;rounded=1;sketch=1;curveFitting=1;jiggle=2;glass=0;shadow=0;hachureAngle=-41;" vertex="1" parent="JxzReIGNzYuF0FjpWkMe-121">
          <mxGeometry x="10" y="10" width="61.25" height="30" as="geometry" />
        </mxCell>
        <mxCell id="JxzReIGNzYuF0FjpWkMe-132" value="" style="group;fillColor=#fff2cc;strokeColor=#d6b656;" vertex="1" connectable="0" parent="1">
          <mxGeometry x="730" y="360" width="190" height="239" as="geometry" />
        </mxCell>
        <mxCell id="JxzReIGNzYuF0FjpWkMe-133" value="" style="rounded=0;whiteSpace=wrap;html=1;glass=0;shadow=0;hachureAngle=-41;container=0;" vertex="1" parent="JxzReIGNzYuF0FjpWkMe-132">
          <mxGeometry width="190" height="239" as="geometry" />
        </mxCell>
        <mxCell id="JxzReIGNzYuF0FjpWkMe-134" value="" style="rounded=0;whiteSpace=wrap;html=1;dashed=1;" vertex="1" parent="JxzReIGNzYuF0FjpWkMe-132">
          <mxGeometry x="10" y="10" width="100" height="220.6" as="geometry" />
        </mxCell>
        <mxCell id="JxzReIGNzYuF0FjpWkMe-135" value="" style="whiteSpace=wrap;html=1;aspect=fixed;rounded=0;glass=0;shadow=0;hachureAngle=-41;" vertex="1" parent="JxzReIGNzYuF0FjpWkMe-132">
          <mxGeometry x="20" y="36.5" width="82.5" height="82.5" as="geometry" />
        </mxCell>
        <mxCell id="JxzReIGNzYuF0FjpWkMe-136" value="" style="whiteSpace=wrap;html=1;aspect=fixed;rounded=0;glass=0;shadow=0;hachureAngle=-41;" vertex="1" parent="JxzReIGNzYuF0FjpWkMe-132">
          <mxGeometry x="20" y="141.5" width="82.5" height="82.5" as="geometry" />
        </mxCell>
        <mxCell id="JxzReIGNzYuF0FjpWkMe-137" value="File Puller&lt;br&gt;Container" style="text;html=1;strokeColor=none;fillColor=none;align=center;verticalAlign=middle;whiteSpace=wrap;rounded=1;sketch=1;curveFitting=1;jiggle=2;glass=0;shadow=0;hachureAngle=-41;" vertex="1" parent="JxzReIGNzYuF0FjpWkMe-132">
          <mxGeometry x="31.25" y="59" width="60" height="30" as="geometry" />
        </mxCell>
        <mxCell id="JxzReIGNzYuF0FjpWkMe-138" value="Webserver&lt;br&gt;Container" style="text;html=1;strokeColor=none;fillColor=none;align=center;verticalAlign=middle;whiteSpace=wrap;rounded=1;sketch=1;curveFitting=1;jiggle=2;glass=0;shadow=0;hachureAngle=-41;" vertex="1" parent="JxzReIGNzYuF0FjpWkMe-132">
          <mxGeometry x="31.25" y="167.75" width="60" height="30" as="geometry" />
        </mxCell>
        <mxCell id="JxzReIGNzYuF0FjpWkMe-139" value="" style="group" vertex="1" connectable="0" parent="JxzReIGNzYuF0FjpWkMe-132">
          <mxGeometry x="120" y="89" width="60" height="83.19999999999999" as="geometry" />
        </mxCell>
        <mxCell id="JxzReIGNzYuF0FjpWkMe-140" value="" style="shadow=0;dashed=0;html=1;strokeColor=none;fillColor=#75B4DB;labelPosition=center;verticalLabelPosition=bottom;verticalAlign=top;align=center;outlineConnect=0;shape=mxgraph.veeam.volume_shadow_copy;" vertex="1" parent="JxzReIGNzYuF0FjpWkMe-139">
          <mxGeometry x="2.8000000000000114" y="26" width="57.2" height="57.2" as="geometry" />
        </mxCell>
        <mxCell id="JxzReIGNzYuF0FjpWkMe-141" value="Volume" style="text;html=1;strokeColor=none;fillColor=none;align=center;verticalAlign=middle;whiteSpace=wrap;rounded=1;sketch=1;curveFitting=1;jiggle=2;glass=0;shadow=0;hachureAngle=-41;" vertex="1" parent="JxzReIGNzYuF0FjpWkMe-139">
          <mxGeometry width="60" height="30" as="geometry" />
        </mxCell>
        <mxCell id="JxzReIGNzYuF0FjpWkMe-142" value="&lt;b&gt;Service&lt;/b&gt;" style="text;html=1;strokeColor=none;fillColor=none;align=center;verticalAlign=middle;whiteSpace=wrap;rounded=1;sketch=1;curveFitting=1;jiggle=2;glass=0;shadow=0;hachureAngle=-41;" vertex="1" parent="JxzReIGNzYuF0FjpWkMe-132">
          <mxGeometry x="10" y="10" width="61.25" height="30" as="geometry" />
        </mxCell>
        <mxCell id="JxzReIGNzYuF0FjpWkMe-145" value="&lt;b&gt;Worker Node 2&lt;/b&gt;" style="text;html=1;strokeColor=none;fillColor=none;align=center;verticalAlign=middle;whiteSpace=wrap;rounded=1;sketch=1;curveFitting=1;jiggle=2;glass=0;shadow=0;hachureAngle=-41;" vertex="1" parent="1">
          <mxGeometry x="520" y="330" width="90" height="30" as="geometry" />
        </mxCell>
        <mxCell id="JxzReIGNzYuF0FjpWkMe-146" value="&lt;b&gt;Worker Node 3&lt;/b&gt;" style="text;html=1;strokeColor=none;fillColor=none;align=center;verticalAlign=middle;whiteSpace=wrap;rounded=1;sketch=1;curveFitting=1;jiggle=2;glass=0;shadow=0;hachureAngle=-41;" vertex="1" parent="1">
          <mxGeometry x="730" y="330" width="90" height="30" as="geometry" />
        </mxCell>
        <mxCell id="JxzReIGNzYuF0FjpWkMe-147" value="" style="group" vertex="1" connectable="0" parent="1">
          <mxGeometry x="560" y="130" width="120" height="30" as="geometry" />
        </mxCell>
        <mxCell id="JxzReIGNzYuF0FjpWkMe-63" value="" style="rounded=0;whiteSpace=wrap;html=1;" vertex="1" parent="JxzReIGNzYuF0FjpWkMe-147">
          <mxGeometry x="-5" width="120" height="30" as="geometry" />
        </mxCell>
        <mxCell id="JxzReIGNzYuF0FjpWkMe-65" value="&lt;b&gt;Load Balancer&lt;/b&gt;" style="text;html=1;strokeColor=none;fillColor=none;align=center;verticalAlign=middle;whiteSpace=wrap;rounded=1;sketch=1;curveFitting=1;jiggle=2;glass=0;shadow=0;hachureAngle=-41;" vertex="1" parent="JxzReIGNzYuF0FjpWkMe-147">
          <mxGeometry x="10" width="90" height="30" as="geometry" />
        </mxCell>
        <mxCell id="JxzReIGNzYuF0FjpWkMe-148" value="" style="group" vertex="1" connectable="0" parent="1">
          <mxGeometry x="555" y="200" width="120" height="30" as="geometry" />
        </mxCell>
        <mxCell id="JxzReIGNzYuF0FjpWkMe-149" value="" style="rounded=0;whiteSpace=wrap;html=1;" vertex="1" parent="JxzReIGNzYuF0FjpWkMe-148">
          <mxGeometry width="120" height="30" as="geometry" />
        </mxCell>
        <mxCell id="JxzReIGNzYuF0FjpWkMe-150" value="&lt;b&gt;Ingress&lt;/b&gt;" style="text;html=1;strokeColor=none;fillColor=none;align=center;verticalAlign=middle;whiteSpace=wrap;rounded=1;sketch=1;curveFitting=1;jiggle=2;glass=0;shadow=0;hachureAngle=-41;" vertex="1" parent="JxzReIGNzYuF0FjpWkMe-148">
          <mxGeometry x="15" width="90" height="30" as="geometry" />
        </mxCell>
        <mxCell id="JxzReIGNzYuF0FjpWkMe-151" style="edgeStyle=orthogonalEdgeStyle;rounded=0;orthogonalLoop=1;jettySize=auto;html=1;entryX=0.5;entryY=0;entryDx=0;entryDy=0;" edge="1" parent="1" target="JxzReIGNzYuF0FjpWkMe-2">
          <mxGeometry relative="1" as="geometry">
            <mxPoint x="620" y="260" as="sourcePoint" />
          </mxGeometry>
        </mxCell>
        <mxCell id="JxzReIGNzYuF0FjpWkMe-152" style="edgeStyle=orthogonalEdgeStyle;rounded=0;orthogonalLoop=1;jettySize=auto;html=1;entryX=0.5;entryY=0;entryDx=0;entryDy=0;" edge="1" parent="1" source="JxzReIGNzYuF0FjpWkMe-150" target="JxzReIGNzYuF0FjpWkMe-122">
          <mxGeometry relative="1" as="geometry" />
        </mxCell>
        <mxCell id="JxzReIGNzYuF0FjpWkMe-153" style="edgeStyle=orthogonalEdgeStyle;rounded=0;orthogonalLoop=1;jettySize=auto;html=1;entryX=0.563;entryY=-0.004;entryDx=0;entryDy=0;entryPerimeter=0;" edge="1" parent="1" target="JxzReIGNzYuF0FjpWkMe-133">
          <mxGeometry relative="1" as="geometry">
            <mxPoint x="620" y="260" as="sourcePoint" />
          </mxGeometry>
        </mxCell>
        <mxCell id="JxzReIGNzYuF0FjpWkMe-156" style="edgeStyle=orthogonalEdgeStyle;rounded=0;orthogonalLoop=1;jettySize=auto;html=1;entryX=0.5;entryY=0;entryDx=0;entryDy=0;" edge="1" parent="1" source="JxzReIGNzYuF0FjpWkMe-65" target="JxzReIGNzYuF0FjpWkMe-150">
          <mxGeometry relative="1" as="geometry" />
        </mxCell>
        <mxCell id="JxzReIGNzYuF0FjpWkMe-157" style="edgeStyle=orthogonalEdgeStyle;rounded=0;orthogonalLoop=1;jettySize=auto;html=1;entryX=0.5;entryY=0;entryDx=0;entryDy=0;" edge="1" parent="1" source="JxzReIGNzYuF0FjpWkMe-64" target="JxzReIGNzYuF0FjpWkMe-65">
          <mxGeometry relative="1" as="geometry" />
        </mxCell>
      </root>
    </mxGraphModel>
  </diagram>
</mxfile>
